<!-- Generated by IcoMoon.io -->
<svg version="1.1" xmlns="http://www.w3.org/2000/svg" width="400" height="448" viewBox="0 0 400 448">
<title></title>
<g id="icomoon-ignore">
</g>
<path fill="#000" d="M64 144c0 8.75-7.25 16-16 16-9 0-16-7.25-16-16 0-9 7-16 16-16 8.75 0 16 7 16 16zM104 272v-160c0-8.75-7.25-16-16-16h-72c-8.75 0-16 7.25-16 16v160c0 8.75 7.25 16 16 16h72c8.75 0 16-7.25 16-16zM386.25 234.75c8.5 9.5 13.75 24 13.75 37.25-0.25 26-22 48-48 48h-69.25c2 8 4.5 10.5 7.25 16 6.5 13 14 27.5 14 48 0 19.25 0 64-56 64-4.25 0-8.25-1.75-11.25-4.75-10.75-10.5-13.75-26-16.5-40.75-3-14.5-5.75-29.5-15.5-39.25-7.75-7.75-16.25-18.5-25.25-30-11-14.5-35-44.25-44.25-45-8.25-0.75-15.25-7.75-15.25-16v-160.25c0-8.75 7.5-15.75 16-16 8.75-0.25 23.75-5.5 39.5-11 27-9.25 60.75-21 96.5-21h32.25c22 0.25 38.5 6.75 49.25 19.5 9.5 11.25 13.75 26.5 12.25 45.25 6.25 6 11 14.25 13.5 23.5 2.75 10 2.75 20 0 29.25 7.5 10 11.25 21.75 10.75 34.25 0 3.5-1 11-3.75 19z"></path>
</svg>
